<svg xmlns="http://www.w3.org/2000/svg" viewBox="0 0 64 64">
  <defs>
    <linearGradient id="a" x1="10" y1="10" x2="43" y2="48" gradientUnits="userSpaceOnUse"><stop stop-color="#2462ff"/><stop offset="1" stop-color="#6625f5"/></linearGradient>
    <linearGradient id="b" x1="24" y1="22" x2="54" y2="55" gradientUnits="userSpaceOnUse"><stop stop-color="#bdceff" stop-opacity=".95"/><stop offset="1" stop-color="#7e63ec" stop-opacity=".76"/></linearGradient>
  </defs>
  <rect x="1.5" y="1.5" width="61" height="61" rx="20" fill="#f9faff" stroke="#fff" stroke-width="3"/>
  <path d="M14.5 22.2 33.7 11c3.3-1.9 7.4.5 7.4 4.3v25.1c0 2.7-2.9 4.4-5.3 3.1L16.7 32.6a5.3 5.3 0 0 1-2.6-4.6v-1.2c0-1.9 1-3.6 2.4-4.6Z" fill="url(#a)"/>
  <path d="m31.7 27 13.7 7.9a5.3 5.3 0 0 1 2.6 4.6v10.2c0 3.8-4.1 6.2-7.4 4.3L23.2 44a5.3 5.3 0 0 1-2.6-4.6V28.1c0-3.8 4.1-6.2 7.4-4.3l3.7 2.1Z" fill="url(#b)"/>
</svg>
